<svg width="16" height="15" viewBox="0 0 16 15" fill="none" xmlns="http://www.w3.org/2000/svg">
<path d="M12.499 5.625H12.0303V3.75C12.0303 3.23242 11.9326 2.74414 11.7373 2.28516C11.542 1.83594 11.2734 1.44043 10.9316 1.09863C10.5898 0.756836 10.1943 0.488281 9.74512 0.292969C9.28613 0.0976562 8.79785 0 8.28027 0C7.7627 0 7.27441 0.0976562 6.81543 0.292969C6.36621 0.488281 5.9707 0.756836 5.62891 1.09863C5.28711 1.44043 5.01855 1.83594 4.82324 2.28516C4.62793 2.74414 4.53027 3.23242 4.53027 3.75V5.625H4.06152C3.6709 5.625 3.33887 5.76172 3.06543 6.03516C2.79199 6.30859 2.65527 6.64062 2.65527 7.03125V13.5938C2.65527 13.9844 2.79199 14.3164 3.06543 14.5898C3.33887 14.8633 3.6709 15 4.06152 15H12.499C12.8896 15 13.2217 14.8633 13.4951 14.5898C13.7686 14.3164 13.9053 13.9844 13.9053 13.5938V7.03125C13.9053 6.64062 13.7686 6.30859 13.4951 6.03516C13.2217 5.76172 12.8896 5.625 12.499 5.625ZM5.77539 3.75C5.77539 3.05664 6.01953 2.46582 6.50781 1.97754C6.99609 1.48926 7.58691 1.24512 8.28027 1.24512C8.97363 1.24512 9.56445 1.48926 10.0527 1.97754C10.541 2.46582 10.7852 3.05664 10.7852 3.75V5.625H5.77539V3.75ZM8.91016 10.4443V11.8799C8.91016 12.0459 8.84912 12.1899 8.72705 12.312C8.60498 12.4341 8.45605 12.4951 8.28027 12.4951C8.10449 12.4951 7.95557 12.4341 7.8335 12.312C7.71143 12.1899 7.65039 12.0459 7.65039 11.8799V10.4443C7.46484 10.3369 7.31592 10.1904 7.20361 10.0049C7.09131 9.81934 7.03516 9.60938 7.03516 9.375C7.03516 9.0332 7.15723 8.74023 7.40137 8.49609C7.64551 8.25195 7.93848 8.12988 8.28027 8.12988C8.62207 8.12988 8.91504 8.25195 9.15918 8.49609C9.40332 8.74023 9.52539 9.0332 9.52539 9.375C9.52539 9.60938 9.46924 9.81934 9.35693 10.0049C9.24463 10.1904 9.0957 10.3369 8.91016 10.4443Z" fill="#7A7373"/>
</svg>
