<svg width="16" height="15" viewBox="0 0 16 15" fill="none" xmlns="http://www.w3.org/2000/svg">
<g clip-path="url(#clip0_182_628)">
<path d="M9.54004 9.18457C9.34473 9.31152 9.14209 9.40674 8.93213 9.47021C8.72217 9.53369 8.50488 9.56543 8.28027 9.56543C8.05566 9.56543 7.83838 9.53369 7.62842 9.47021C7.41846 9.40674 7.21582 9.31152 7.02051 9.18457L0.882812 5.09766C0.863281 5.07812 0.846191 5.06348 0.831543 5.05371C0.816895 5.04395 0.799805 5.03418 0.780273 5.02441V11.7334C0.780273 12.124 0.916992 12.4512 1.19043 12.7148C1.46387 12.9785 1.78613 13.1104 2.15723 13.1104H14.4033C14.7842 13.1104 15.1089 12.9761 15.3774 12.7075C15.646 12.439 15.7803 12.1143 15.7803 11.7334V5.02441C15.7607 5.03418 15.7437 5.04395 15.729 5.05371C15.7144 5.06348 15.6973 5.07812 15.6777 5.09766L9.54004 9.18457ZM1.36621 4.36523L7.51855 8.45215C7.63574 8.53027 7.75781 8.58887 7.88477 8.62793C8.01172 8.66699 8.14355 8.68652 8.28027 8.68652C8.41699 8.68652 8.54883 8.66699 8.67578 8.62793C8.80273 8.58887 8.9248 8.53027 9.04199 8.45215L15.1943 4.36523C15.3799 4.23828 15.5239 4.07715 15.6265 3.88184C15.729 3.68652 15.7803 3.48145 15.7803 3.2666C15.7803 2.88574 15.646 2.56104 15.3774 2.29248C15.1089 2.02393 14.7842 1.88965 14.4033 1.88965H2.15723C1.77637 1.88965 1.45166 2.02393 1.18311 2.29248C0.914551 2.56104 0.780273 2.88574 0.780273 3.2666C0.780273 3.48145 0.831543 3.68652 0.934082 3.88184C1.03662 4.07715 1.18066 4.23828 1.36621 4.36523Z" fill="#7A7373"/>
</g>
<defs>
<clipPath id="clip0_182_628">
<rect width="15" height="15" fill="white" transform="matrix(1 0 0 -1 0.780273 15)"/>
</clipPath>
</defs>
</svg>
